<svg width="72" height="72" viewBox="0 0 72 72" fill="none" xmlns="http://www.w3.org/2000/svg">
<path d="M50.4 0H21.6C9.6876 0 0 9.6876 0 21.6V68.4C0 69.3548 0.379285 70.2705 1.05442 70.9456C1.72955 71.6207 2.64522 72 3.6 72H50.4C62.3124 72 72 62.3124 72 50.4V21.6C72 9.6876 62.3124 0 50.4 0Z" fill="#009982"/>
<path d="M50.4283 22.0928C49.3385 21.003 48.5692 19.7208 47.9281 18.5669C46.9665 16.9642 46.1331 15.6179 44.7869 15.4256C43.5688 15.2333 42.5431 16.1308 41.902 16.7719C39.4659 19.208 36.7734 24.3366 36.2606 28.8241C35.6836 24.4007 32.9911 19.1438 30.6191 16.7719C28.9523 15.1051 27.4778 14.9127 26.1957 16.1949C25.6187 16.7719 25.1699 17.6053 24.593 18.5669C23.9519 19.7208 23.1826 21.003 22.0928 22.0928C21.0029 23.1826 19.7208 23.9519 18.5668 24.593C17.6052 25.17 16.7718 25.6187 16.1949 26.1957C14.9127 27.4778 15.105 28.9523 16.7718 30.6191C19.2079 33.0552 24.3365 35.7477 28.8241 36.2606C24.4006 36.8376 19.1438 39.5301 16.7718 41.9021C16.1308 42.5431 15.2332 43.5689 15.4256 44.7869C15.6179 46.1332 16.9642 46.9666 18.5668 47.9282C19.7208 48.5693 21.0029 49.3385 22.0928 50.4284C23.1826 51.5182 23.9519 52.8004 24.593 53.9543C25.5546 55.557 26.388 56.9032 27.7342 57.0956C28.9523 57.2879 29.978 56.3904 30.6191 55.7493C33.0552 53.3132 35.7477 48.1846 36.2606 43.6971C36.8375 48.1205 39.53 53.3773 41.902 55.7493C43.5688 57.4161 45.0433 57.6084 46.3255 56.3263C46.9024 55.7493 47.3512 54.9159 47.9281 53.9543C48.5692 52.8004 49.3385 51.5182 50.4283 50.4284C51.5182 49.3385 52.8003 48.5693 53.9543 47.9282C54.9159 47.3512 55.7493 46.9025 56.3262 46.3255C57.6084 45.0433 57.4161 43.5689 55.7493 41.9021C53.3132 39.466 48.1846 36.7734 43.697 36.2606C48.1205 35.6836 53.3773 32.9911 55.7493 30.6191C56.3904 29.978 57.2879 28.9523 57.0955 27.7343C56.9032 26.388 55.557 25.5546 53.9543 24.593C52.8003 23.9519 51.5182 23.1826 50.4283 22.0928ZM37.6068 37.7351C36.8375 38.5044 36.3888 39.5942 36.1964 40.684C36.0041 39.466 35.5554 38.5044 34.7861 37.7351C34.0168 36.9658 32.927 36.517 31.8371 36.3247C33.0552 36.1324 34.0168 35.6836 34.7861 34.9143C35.5554 34.145 36.0041 33.0552 36.1964 31.9654C36.3888 33.1834 36.8375 34.145 37.6068 34.9143C38.3761 35.6836 39.4659 36.1324 40.5558 36.3247C39.4659 36.517 38.3761 36.9658 37.6068 37.7351Z" fill="white"/>
</svg>
