<svg width="512" height="512" viewBox="0 0 512 512" fill="none" xmlns="http://www.w3.org/2000/svg">
<path d="M438.328 73.6724C390.808 26.1632 327.646 0 260.451 0C193.255 0 130.093 26.1632 82.5734 73.6724C35.0642 121.192 8.90098 184.354 8.90098 251.549C8.90098 286.461 15.9077 320.211 29.748 351.925L0 512L160.075 482.252C191.789 496.092 225.539 503.099 260.451 503.099C327.646 503.099 390.808 476.936 438.328 429.427C485.837 381.907 512 318.745 512 251.549C512 184.354 485.837 121.192 438.328 73.6724ZM324.55 259.636C318.572 283.558 299.609 302.165 275.727 307.817V368.566C293.447 353.921 315.455 344.826 339.307 342.912L347.607 342.24L350.061 372.69L341.761 373.363C312.716 375.705 287.398 392.56 274.026 418.448H246.875C233.503 392.56 208.185 375.705 179.14 373.363L170.84 372.69L173.294 342.24L181.594 342.912C205.446 344.826 227.454 353.921 245.174 368.566V307.817C221.292 302.165 202.329 283.558 196.351 259.636C167.51 252.425 146.388 226.344 146.388 195.536C146.388 164.729 167.51 138.648 196.351 131.437C203.562 102.596 229.643 81.4735 260.451 81.4735C291.258 81.4735 317.339 102.596 324.55 131.437C353.391 138.648 374.513 164.729 374.513 195.536C374.513 226.344 353.391 252.425 324.55 259.636Z" fill="#009982"/>
<path d="M324.55 259.636C318.572 283.558 299.609 302.165 275.727 307.817V368.566C293.447 353.921 315.455 344.826 339.307 342.912L347.607 342.24L350.061 372.69L341.761 373.363C312.716 375.705 287.398 392.56 274.026 418.448H246.875C233.503 392.56 208.185 375.705 179.14 373.363L170.84 372.69L173.294 342.24L181.594 342.912C205.446 344.826 227.454 353.921 245.174 368.566V307.817C221.292 302.165 202.329 283.558 196.351 259.636C167.51 252.425 146.388 226.344 146.388 195.536C146.388 164.729 167.51 138.648 196.351 131.437C203.562 102.596 229.643 81.4735 260.451 81.4735C291.258 81.4735 317.339 102.596 324.55 131.437C353.391 138.648 374.513 164.729 374.513 195.536C374.513 226.344 353.391 252.425 324.55 259.636Z" fill="white"/>
<path d="M310.363 160.065L296.655 159.332L295.922 145.624C294.924 126.783 279.342 112.026 260.451 112.026C241.559 112.026 225.977 126.783 224.979 145.624L224.246 159.332L210.538 160.065C191.697 161.063 176.94 176.645 176.94 195.536C176.94 214.428 191.697 230.01 210.538 231.008L224.246 231.741L224.979 245.449C225.977 264.29 241.559 279.047 260.451 279.047C279.342 279.047 294.924 264.29 295.922 245.449L296.655 231.741L310.363 231.008C329.204 230.01 343.961 214.428 343.961 195.536C343.961 176.645 329.204 161.063 310.363 160.065ZM275.727 210.304H245.174V179.751H275.727V210.304Z" fill="#009982"/>
</svg>
