<svg width="61" height="61" viewBox="0 0 61 61" fill="none" xmlns="http://www.w3.org/2000/svg">
<path d="M44.4283 16.0928C43.3385 15.003 42.5692 13.7208 41.9281 12.5669C40.9665 10.9642 40.1331 9.61793 38.7869 9.4256C37.5688 9.23328 36.5431 10.1308 35.902 10.7719C33.4659 13.208 30.7734 18.3366 30.2606 22.8241C29.6836 18.4007 26.9911 13.1438 24.6191 10.7719C22.9523 9.10506 21.4778 8.91274 20.1957 10.1949C19.6187 10.7719 19.1699 11.6053 18.593 12.5669C17.9519 13.7208 17.1826 15.003 16.0928 16.0928C15.0029 17.1826 13.7208 17.9519 12.5668 18.593C11.6052 19.17 10.7718 19.6187 10.1949 20.1957C8.91271 21.4778 9.10503 22.9523 10.7718 24.6191C13.2079 27.0552 18.3365 29.7477 22.8241 30.2606C18.4006 30.8376 13.1438 33.5301 10.7718 35.9021C10.1308 36.5431 9.23325 37.5689 9.42557 38.7869C9.61789 40.1332 10.9642 40.9666 12.5668 41.9282C13.7208 42.5693 15.0029 43.3385 16.0928 44.4284C17.1826 45.5182 17.9519 46.8004 18.593 47.9543C19.5546 49.557 20.388 50.9032 21.7342 51.0956C22.9523 51.2879 23.978 50.3904 24.6191 49.7493C27.0552 47.3132 29.7477 42.1846 30.2606 37.6971C30.8375 42.1205 33.53 47.3773 35.902 49.7493C37.5688 51.4161 39.0433 51.6084 40.3255 50.3263C40.9024 49.7493 41.3512 48.9159 41.9281 47.9543C42.5692 46.8004 43.3385 45.5182 44.4283 44.4284C45.5182 43.3385 46.8003 42.5693 47.9543 41.9282C48.9159 41.3512 49.7493 40.9025 50.3262 40.3255C51.6084 39.0433 51.4161 37.5689 49.7493 35.9021C47.3132 33.466 42.1846 30.7734 37.697 30.2606C42.1205 29.6836 47.3773 26.9911 49.7493 24.6191C50.3904 23.978 51.2879 22.9523 51.0955 21.7343C50.9032 20.388 49.557 19.5546 47.9543 18.593C46.8003 17.9519 45.5182 17.1826 44.4283 16.0928ZM31.6068 31.7351C30.8375 32.5044 30.3888 33.5942 30.1964 34.684C30.0041 33.466 29.5554 32.5044 28.7861 31.7351C28.0168 30.9658 26.927 30.517 25.8371 30.3247C27.0552 30.1324 28.0168 29.6836 28.7861 28.9143C29.5554 28.145 30.0041 27.0552 30.1964 25.9654C30.3888 27.1834 30.8375 28.145 31.6068 28.9143C32.3761 29.6836 33.4659 30.1324 34.5558 30.3247C33.4659 30.517 32.3761 30.9658 31.6068 31.7351Z" fill="#009982"/>
</svg>
