<svg id="Capa_1" enable-background="new 0 0 512 512" height="512" viewBox="0 0 512 512" width="512" xmlns="http://www.w3.org/2000/svg"><g><g><g><path d="m.117 223.061c-1.112 8.949 5.867 16.85 14.885 16.85h61.026c7.325 0 13.579-5.291 14.792-12.516 11.745-69.945 66.629-124.83 136.574-136.574 7.225-1.213 12.516-7.467 12.516-14.793v-61.026c0-9.018-7.9-15.997-16.85-14.885h-.001c-56.27 6.993-109.427 33.012-149.679 73.263-40.251 40.252-66.27 93.41-73.263 149.681z"/><path d="m351.576 390.68c-28.47 20.328-61.853 31.072-96.54 31.072-81.621 0-150.683-58.49-164.215-139.078-1.213-7.224-7.467-12.516-14.792-12.516h-61.027c-9.018 0-15.997 7.9-14.885 16.849v.001c15.941 128.266 125.532 224.992 254.919 224.992 57.64 0 112.15-18.709 157.638-54.104 7.12-5.54 7.774-16.066 1.395-22.445l-43.17-43.17c-5.185-5.184-13.357-5.861-19.323-1.601z"/><path d="m282.674 90.821c80.587 13.532 139.079 82.594 139.079 164.215 0 34.687-10.745 68.069-31.072 96.54-4.26 5.966-3.583 14.138 1.601 19.322l43.172 43.172c6.379 6.379 16.904 5.724 22.444-1.395l.001-.001c35.393-45.486 54.101-99.997 54.101-157.638 0-129.387-96.726-238.978-224.992-254.919h-.001c-8.949-1.112-16.85 5.867-16.85 14.885v61.026c.001 7.326 5.292 13.58 12.517 14.793z"/></g></g><g><path d="m265.024 151.964h-20.012c-8.284 0-15 6.716-15 15v174.998h50.012v-174.998c0-8.284-6.716-15-15-15z"/><path d="m310.024 341.962h35.012c8.284 0 15-6.716 15-15v-119.999c0-8.284-6.716-15-15-15h-35.012z"/><path d="m200.012 231.963h-34.974c-8.284 0-15 6.716-15 15v79.999c0 8.284 6.716 15 15 15h34.974z"/></g></g></svg>