<svg id="gylph" height="512" viewBox="0 0 64 64" width="512" xmlns="http://www.w3.org/2000/svg"><path d="m59.8454 40.50684c-1.16458-3.27417-2.35993-6.57323-3.50927-9.85791a18.63048 18.63048 0 0 0 1.46972-8.74815c-2.60594-22.70927-34.71373-22.21563-36.50233.6-.80145 13.07939 13.243 22.9339 25.23486 17.74584 3.405 1.12262 6.82437 2.26254 10.22771 3.4096a2.47306 2.47306 0 0 0 3.07931-3.14938zm-27.23426-13.37719h-2.78939a1.00274 1.00274 0 0 1 -.99979-.99978v-3.31931c-.00342-.08694.00247-2.28474 0-2.28952a.9999.9999 0 0 1 1.99958.00007v.84975c-.00046.91913.00033 2.85278 0 3.75921h1.7896a1 1 0 0 1 0 1.99958zm3.89921-2.27948v1.2797a1 1 0 0 1 -1.99957-.00007c.0049-.10793-.00355-2.63976 0-2.83936v-2.76938a.99979.99979 0 0 1 1.99958 0zm7.17848-3.9692-2.15958 5.6088a1.00309 1.00309 0 0 1 -1.8696-.02l-2.04956-5.60877a.99939.99939 0 0 1 1.87961-.67985l1.12977 3.09938 1.19976-3.11934a1.002 1.002 0 0 1 1.8696.71981zm4.99895 1.67964a.9999.9999 0 0 1 0 1.99958h-2.06958v.56989h2.68944a.9999.9999 0 0 1 0 1.99957h-3.68923a.99633.99633 0 0 1 -.99978-.99978v-5.60881a.99633.99633 0 0 1 .99978-.99979h3.68923a1 1 0 0 1 -.00006 1.99958h-2.68938v1.03976z"/><path d="m41.81923 43.4862a20.40506 20.40506 0 0 1 -22.53523-20.10585 23.00018 23.00018 0 0 1 .14989-2.49938 18.00326 18.00326 0 0 0 -2.69944.98981c-8.79431 3.91-13.13388 15.10713-9.08781 23.875-.00025-.00008-2.82967 7.96827-3.49951 9.86784a2.43137 2.43137 0 0 0 3.06934 3.12938s8.19828-2.7294 10.22789-3.40925a18.53576 18.53576 0 0 0 8.4082 1.32967c7.31181-.56642 14.1775-5.88075 15.96667-13.17722z"/></svg>